<?xml version="1.0" standalone="no"?>
<!DOCTYPE svg PUBLIC "-//W3C//DTD SVG 20010904//EN"
 "http://www.w3.org/TR/2001/REC-SVG-20010904/DTD/svg10.dtd">
<svg version="1.0" xmlns="http://www.w3.org/2000/svg"
 width="600.000000pt" height="520.000000pt" viewBox="0 0 600.000000 520.000000"
 preserveAspectRatio="xMidYMid meet">
<g transform="translate(0.000000,520.000000) scale(0.050000,-0.050000)"
fill="#ffffff" stroke="none">
<path d="M3036 10335 c36 -59 448 -774 1353 -2345 1212 -2103 1600 -2770 1611
-2770 7 0 673 1145 1480 2545 807 1400 1480 2565 1496 2590 l29 45 -845 -5
-844 -5 -653 -1134 c-359 -624 -657 -1135 -663 -1135 -5 0 -304 511 -663 1135
l-653 1134 -844 5 -844 5 40 -65z"/>
<path d="M214 4835 c116 -201 305 -529 421 -730 l210 -365 1314 -5 1315 -5
-656 -1137 -656 -1136 414 -718 c228 -396 421 -717 428 -714 13 4 455 768
2461 4245 165 286 350 608 412 715 61 107 116 195 122 195 6 0 288 -479 625
-1065 338 -586 1007 -1744 1486 -2575 479 -831 877 -1512 885 -1515 8 -2 179
281 380 630 201 349 388 672 415 717 l49 82 -657 1138 -656 1138 1315 5 1315
5 250 435 c137 239 326 568 421 730 l171 295 -5998 0 -5997 0 211 -365z"/>
</g>
</svg>
